# xmcd CD database file
# Copyright (C) 1993-1998 Ti Kan
#
# Track frame offsets:
#	150
#	23147
#	42382
#	74075
#	92747
#	111575
#	186300
#
# Disc length: 2816 seconds
#
# Revision: 1
# Processed by: cddbd v1.4b41PL1 Copyright (c) Steve Scherf et al.
# Submitted via: NotifyCDPlayer(CDDB) 1.51.3
#
DISCID=670afe07
DTITLE=Sunset Heights - Born in Houston - Live
DYEAR=1900
DGENRE=
TTITLE0=Save Yourself
TTITLE1=Lost in the Shuffle
TTITLE2=Missing You
TTITLE3=She Thang
TTITLE4=Sally Jo
TTITLE5=Hey Joe - Third Stone from the Sun
TTITLE6=Movin´ On
EXTD=
EXTT0=
EXTT1=
EXTT2=
EXTT3=
EXTT4=
EXTT5=
EXTT6=
PLAYORDER=
